<?xml version="1.0" encoding="UTF-8" standalone="no"?>
<!-- Created with Inkscape (http://www.inkscape.org/) -->

<svg
   xmlns:dc="http://purl.org/dc/elements/1.1/"
   xmlns:cc="http://creativecommons.org/ns#"
   xmlns:rdf="http://www.w3.org/1999/02/22-rdf-syntax-ns#"
   xmlns:svg="http://www.w3.org/2000/svg"
   xmlns="http://www.w3.org/2000/svg"
   xmlns:sodipodi="http://sodipodi.sourceforge.net/DTD/sodipodi-0.dtd"
   xmlns:inkscape="http://www.inkscape.org/namespaces/inkscape"
   width="128"
   height="128"
   viewBox="0 0 33.866666 33.866668"
   version="1.1"
   id="svg8"
   inkscape:version="0.92.3 (2405546, 2018-03-11)"
   sodipodi:docname="logo.svg"
   inkscape:export-filename="/media/eray/kuvvet/webrecorder/frontend/src/shared/images/favicon.png"
   inkscape:export-xdpi="16.567299"
   inkscape:export-ydpi="16.567299">
  <defs
     id="defs2">
    <inkscape:path-effect
       effect="powerstroke"
       id="path-effect950"
       is_visible="true"
       offset_points="0,0.033840672"
       sort_points="true"
       interpolator_type="CubicBezierJohan"
       interpolator_beta="0.2"
       start_linecap_type="zerowidth"
       linejoin_type="extrp_arc"
       miter_limit="4"
       end_linecap_type="zerowidth" />
    <inkscape:path-effect
       effect="powerstroke"
       id="path-effect824"
       is_visible="true"
       offset_points="0,0.13229166"
       sort_points="true"
       interpolator_type="CubicBezierJohan"
       interpolator_beta="0.2"
       start_linecap_type="zerowidth"
       linejoin_type="extrp_arc"
       miter_limit="4"
       end_linecap_type="zerowidth" />
    <filter
       inkscape:collect="always"
       style="color-interpolation-filters:sRGB"
       id="filter1090"
       x="-0.0056687756"
       width="1.0113376"
       y="-0.0062561724"
       height="1.0125123">
      <feGaussianBlur
         inkscape:collect="always"
         stdDeviation="0.20693034"
         id="feGaussianBlur1092" />
    </filter>
  </defs>
  <sodipodi:namedview
     id="base"
     pagecolor="#ffffff"
     bordercolor="#666666"
     borderopacity="1.0"
     inkscape:pageopacity="0.0"
     inkscape:pageshadow="2"
     inkscape:zoom="6.24"
     inkscape:cx="58.282841"
     inkscape:cy="44.887874"
     inkscape:document-units="px"
     inkscape:current-layer="layer1"
     showgrid="false"
     inkscape:snap-global="false"
     inkscape:window-width="1920"
     inkscape:window-height="1052"
     inkscape:window-x="0"
     inkscape:window-y="0"
     inkscape:window-maximized="1"
     units="px" />
  <metadata
     id="metadata5">
    <rdf:RDF>
      <cc:Work
         rdf:about="">
        <dc:format>image/svg+xml</dc:format>
        <dc:type
           rdf:resource="http://purl.org/dc/dcmitype/StillImage" />
        <dc:title></dc:title>
      </cc:Work>
    </rdf:RDF>
  </metadata>
  <g
     inkscape:label="Layer 1"
     inkscape:groupmode="layer"
     id="layer1"
     transform="translate(0,-263.13329)">
    <path
       style="fill:#000000;fill-rule:nonzero;stroke:none;strokeWidth:0.26458332px;stroke-linecap:butt;stroke-linejoin:miter;stroke-opacity:1"
       d="m -35.553657,97.440751 c 0,0 -0.132292,0 -0.132292,0 0,0.09175 0.132292,0.367005 0.132292,0.458756 0,-0.09175 0.132292,-0.367005 0.132292,-0.458756 0,0 -0.132292,0 -0.132292,0 z"
       id="path822"
       inkscape:connector-curvature="0"
       inkscape:path-effect="#path-effect824"
       inkscape:original-d="m -35.553657,97.440751 v 0.458756" />
    <flowRoot
       xml:space="preserve"
       id="flowRoot918"
       style="font-style:normal;font-weight:normal;font-size:16px;line-height:1.25;font-family:sans-serif;letter-spacing:0px;word-spacing:0px;fill:#000000;fill-opacity:1;stroke:none"><flowRegion
         id="flowRegion920"><rect
           id="rect922"
           width="406.59586"
           height="337.24051"
           x="272.21985"
           y="383.88498" /></flowRegion><flowPara
         id="flowPara924" /></flowRoot>    <path
       id="path854"
       transform="matrix(0.27110383,0,0,0.2556897,-19.294593,242.05303)"
       style="fill:none;fill-opacity:1;stroke:#000000;strokeWidth:0.6995433;stroke-linecap:butt;stroke-linejoin:miter;stroke-miterlimit:4;stroke-dasharray:none;stroke-opacity:0.91709846;filter:url(#filter1090)"
       d="m 150.48946,135.77213 c 12.39868,0.53169 21.31121,10.59614 21.88196,26.26639 0.57075,15.67025 -10.10911,28.76907 -23.85413,29.25703 -13.74502,0.48796 -25.35023,-11.81972 -25.92097,-27.48997 -0.28537,-7.83512 2.94943,-19.02948 10.53585,-23.30432 -3.17692,-3.90738 -10.17346,-4.94855 -14.11283,-4.67908 -6.13058,8.90011 -9.39307,22.5507 -7.05905,36.47851 0.96771,5.77467 1.37818,11.68092 9.37886,20.75926 -34.839582,-1.18883 -31.162669,-58.17324 -2.40863,-57.25711 10.02,0.98421 20.34227,5.03865 22.15666,15.63677 0.44072,3.17891 0.84843,5.33577 0.51794,11.6167 -5.50839,-0.0487 -4.45974,0.19673 -10.55944,-0.18813 2.97162,4.09261 16.46947,17.18937 17.32242,17.92036 2.51013,-1.93606 10.3253,-9.6913 19.26626,-17.38596 -3.18019,0.0994 -10.57706,-0.10774 -10.57706,-0.10774 0,0 -0.86511,-7.51672 -1.15922,-10.45561 -0.73678,-7.36161 -2.72263,-10.12449 -5.24602,-16.87521 -0.39856,-1.06623 -8.35483,-10.80431 -14.85384,-13.00991 -70.694699,-21.84163 -71.860461,94.72253 -10.18136,75.05613 4.09094,4.58137 18.53354,5.31251 22.46573,5.14231 27.03599,-1.17019 36.63817,-24.74526 35.66106,-48.56128 h -2e-5 l 0.064,-54.29419 c -8.96601,0.46236 -11.53806,2.92177 -11.2572,18.02588 0.11898,6.83782 0.34429,15.60673 0.34429,15.60673 0,0 -9.00276,-13.22715 -29.60775,-11.79323 -4.56919,0.31798 -2.56409,0.85161 -7.87638,0.78683 4.95599,2.02106 10.12288,5.43829 15.07887,12.84884 z M 110.59963,83.306954 h 46.00414 c 21.18965,0 38.24848,18.087196 38.24848,40.554276 v 48.77748 c 0,22.46704 -17.05883,40.55423 -38.24848,40.55423 h -46.00414 c -21.189653,0 -38.248473,-18.08719 -38.248473,-40.55423 v -48.77748 c 0,-22.46708 17.05882,-40.554276 38.248473,-40.554276 z"
       inkscape:connector-curvature="0"
       sodipodi:nodetypes="cssscccccccccccssccsccccccccsssssssss" />
  </g>
</svg>
